<?xml version="1.0" standalone="no"?>
<!DOCTYPE svg PUBLIC "-//W3C//DTD SVG 20010904//EN"
 "http://www.w3.org/TR/2001/REC-SVG-20010904/DTD/svg10.dtd">
<svg version="1.0" xmlns="http://www.w3.org/2000/svg"
 width="2048.000000pt" height="2048.000000pt" viewBox="0 0 2048.000000 2048.000000"
 preserveAspectRatio="xMidYMid meet">
<metadata>
Created by potrace 1.16, written by Peter Selinger 2001-2019
</metadata>
<g transform="translate(0.000000,2048.000000) scale(0.100000,-0.100000)"
fill="#2a5a4a" stroke="none">
<path d="M7170 15065 l0 -584 -72 40 c-127 70 -517 258 -685 330 -151 65 -454
179 -516 194 l-27 7 0 -481 c0 -378 -3 -481 -12 -481 -7 0 -41 9 -75 20 -94
29 -406 110 -484 124 l-69 14 0 -414 0 -414 -23 0 c-13 0 -94 11 -181 25 -86
13 -189 27 -229 31 l-72 6 0 -227 0 -228 -355 -1 -355 -1 -3 -3958 -2 -3957
2690 0 2691 0 72 -49 c96 -64 153 -92 277 -135 161 -57 305 -79 500 -80 297 0
564 73 774 212 l79 52 2688 0 2689 0 -2 3958 -3 3957 -353 0 -352 0 0 215 c0
118 -4 222 -9 230 -8 12 -41 10 -238 -18 -125 -18 -236 -32 -245 -32 -17 0
-18 26 -18 410 l0 410 -22 0 c-35 0 -214 -42 -421 -99 -102 -28 -188 -51 -191
-51 -3 0 -6 216 -6 481 l0 481 -30 -7 c-50 -11 -355 -129 -551 -213 -177 -76
-663 -313 -684 -333 -34 -34 -35 -22 -35 566 0 316 -3 575 -7 575 -12 0 -226
-132 -398 -245 -344 -227 -599 -432 -894 -720 -632 -618 -1066 -1275 -1418
-2150 -96 -238 -160 -434 -239 -740 -37 -142 -104 -456 -105 -495 0 -23 -1
-23 -9 -5 -4 11 -18 74 -30 140 -30 161 -117 505 -175 690 -181 576 -466 1166
-793 1645 -314 459 -650 833 -1067 1190 -254 218 -520 406 -892 631 l-113 68
0 -584z m399 -42 c953 -673 1672 -1599 2080 -2680 58 -155 161 -464 161 -484
0 -8 -18 18 -38 56 -133 246 -209 372 -335 555 -440 636 -1058 1232 -1775
1710 l-172 115 0 388 c0 213 3 387 6 387 4 0 36 -21 73 -47z m5421 -342 l0
-388 -174 -117 c-330 -221 -602 -435 -916 -722 -459 -419 -931 -1033 -1195
-1554 -102 -200 57 282 217 659 145 343 306 639 524 966 287 431 590 775 990
1125 186 162 520 420 545 420 5 0 9 -167 9 -389z m-6650 -143 c512 -216 954
-463 1430 -796 166 -117 220 -159 435 -338 529 -441 963 -952 1295 -1524 104
-180 232 -440 216 -440 -2 0 -27 39 -55 88 -28 48 -107 161 -175 252 -476 636
-1128 1188 -1912 1618 -365 201 -791 386 -1211 529 l-173 58 0 304 0 303 28
-7 c15 -3 70 -24 122 -47z m7950 -251 l0 -303 -116 -38 c-504 -162 -1103 -437
-1544 -709 -457 -281 -826 -572 -1160 -913 -277 -283 -427 -466 -613 -746 -50
-76 -93 -136 -95 -134 -6 6 100 225 159 329 323 572 689 1034 1149 1450 623
563 1290 986 2080 1318 63 27 121 48 128 49 9 0 12 -67 12 -303z m-8301 -561
c458 -134 904 -311 1343 -533 805 -406 1502 -981 2013 -1658 173 -231 380
-556 484 -762 17 -35 28 -63 24 -63 -5 0 -29 33 -55 74 -243 378 -648 821
-1053 1155 -478 393 -1080 744 -1700 991 -415 165 -1067 354 -1418 410 l-77
13 0 247 0 248 123 -33 c67 -18 209 -58 316 -89z m8941 -124 l0 -248 -97 -18
c-300 -55 -643 -146 -978 -258 -744 -249 -1335 -552 -1920 -985 -449 -333
-924 -825 -1222 -1265 -48 -70 -89 -126 -91 -123 -3 2 38 83 91 179 96 175
241 405 345 546 30 41 74 100 96 130 64 86 233 288 312 370 39 41 98 104 130
139 98 106 376 350 604 530 128 101 490 343 660 441 173 100 593 306 782 384
310 128 733 272 1093 371 94 26 175 48 180 50 6 2 11 4 13 4 1 1 2 -111 2
-247z m-9830 -3723 c0 -1776 -3 -3229 -7 -3230 -5 0 -18 -2 -30 -5 -12 -2 -24
0 -27 5 -4 6 -10 6278 -6 6461 0 4 16 4 35 2 l35 -4 0 -3229z m10351 2029 c2
-2010 -3 -5253 -7 -5258 -3 -2 -125 -7 -272 -11 -278 -8 -325 -10 -662 -35
-699 -51 -1353 -154 -1994 -315 -307 -76 -580 -163 -945 -298 -90 -34 -166
-60 -168 -58 -1 2 80 48 182 101 899 475 1864 765 3005 905 135 16 278 33 318
36 l72 7 0 2859 c0 1572 -2 2859 -5 2859 -20 0 -385 -90 -494 -121 -795 -231
-1529 -621 -2076 -1103 -440 -388 -758 -765 -1070 -1270 -285 -463 -542 -1028
-751 -1651 -51 -154 -111 -345 -134 -424 -22 -80 -42 -147 -45 -149 -3 -3 -4
251 -4 564 l0 569 71 180 c447 1140 1140 2030 2139 2747 287 206 721 449 1065
596 298 128 684 254 1026 337 265 64 626 132 711 134 l37 1 1 -1202z m-10011
1141 c570 -106 1200 -317 1690 -565 448 -226 947 -564 1275 -864 366 -335 595
-588 860 -949 205 -280 351 -523 525 -871 114 -227 124 -249 225 -511 l65
-166 -1 -579 c-1 -408 -4 -569 -11 -544 -328 1135 -684 1914 -1194 2612 -311
426 -735 848 -1144 1140 -511 364 -1111 650 -1745 831 -108 31 -405 101 -463
109 l-23 3 0 -2849 c0 -2346 2 -2850 13 -2857 7 -5 30 -9 51 -9 20 0 144 -13
275 -30 1040 -131 1831 -346 2669 -725 186 -84 576 -285 568 -293 -2 -2 -71
21 -152 53 -925 358 -2048 580 -3273 645 -102 6 -232 10 -290 10 -58 0 -111 4
-117 8 -10 6 -13 671 -15 3224 l-3 3217 25 -5 c14 -2 99 -18 190 -35z m-714
-3558 l1 -3144 499 -2 c485 -2 657 -9 1104 -40 395 -28 952 -99 1271 -160 177
-35 614 -142 814 -200 268 -78 740 -244 696 -245 -7 0 -119 24 -250 54 -555
128 -930 185 -1543 236 -408 33 -653 42 -1128 43 -443 0 -654 -7 -1199 -41
l-265 -17 3 -60 c1 -33 4 -61 5 -62 2 -2 97 1 212 7 274 13 1126 13 1424 0
733 -31 1309 -88 1890 -185 220 -37 690 -127 780 -149 47 -12 -279 -14 -2282
-15 l-2338 -1 -2 2173 c-2 2266 -1 3314 1 4345 l1 613 153 -3 152 -3 1 -3144z
m11339 -416 l0 -3560 -2335 -2 c-1393 -1 -2325 2 -2310 8 36 13 495 103 705
138 629 106 1183 164 1885 197 276 13 470 15 970 10 344 -3 658 -9 698 -12
l72 -6 0 61 c0 73 17 66 -210 81 -784 51 -1608 55 -2245 10 -667 -47 -1214
-132 -1858 -289 -43 -10 -75 -15 -70 -11 27 25 445 172 693 244 739 213 1362
314 2280 370 383 24 860 38 1148 34 l262 -3 0 3063 c0 1685 3 3101 6 3148 l7
85 151 -3 151 -3 0 -3560z m-10075 2704 l70 -21 2 -2136 3 -2136 150 -23 c145
-22 402 -69 438 -79 16 -5 17 97 17 2050 0 1131 2 2056 5 2056 12 0 172 -84
267 -141 657 -391 1167 -938 1630 -1748 167 -294 355 -675 533 -1086 104 -239
176 -416 330 -810 102 -263 383 -1034 509 -1400 42 -121 90 -256 106 -301 l30
-81 0 -243 0 -243 -143 139 c-464 452 -965 792 -1607 1090 -318 147 -625 261
-1060 392 -158 48 -604 152 -795 186 -85 15 -561 86 -577 86 -5 0 -8 1008 -8
2241 0 2009 2 2241 15 2235 9 -3 47 -15 85 -27z m8600 -2208 c0 -2032 -1
-2239 -16 -2245 -9 -3 -30 -6 -47 -6 -118 0 -757 -120 -1091 -205 -217 -55
-237 -60 -516 -150 -936 -301 -1776 -793 -2376 -1390 l-144 -144 0 244 0 244
31 83 c17 46 88 247 159 448 70 201 151 428 179 505 249 679 298 808 444 1170
310 773 671 1485 975 1925 434 628 931 1084 1512 1388 l105 55 3 -2057 c2
-1953 3 -2057 20 -2052 31 9 344 64 462 81 63 9 118 19 123 22 4 2 7 964 7
2137 l0 2132 73 27 c39 14 78 26 85 26 9 1 12 -453 12 -2238z"/>
<path d="M15125 12413 c-11 -2 -37 -9 -57 -14 l-38 -10 0 -2699 c0 -1484 3
-2701 8 -2703 4 -2 32 -1 62 2 l55 6 3 2713 c1 1491 -1 2711 -5 2711 -5 -1
-17 -3 -28 -6z"/>
</g>
</svg>
