<?xml version="1.0" encoding="utf-8" ?><svg xmlns="http://www.w3.org/2000/svg" xmlns:xlink="http://www.w3.org/1999/xlink" width="1024" height="1024" viewBox="0 0 1024 1024"><path fill="#E2E2E2" d="M0 0L1024 0L1024 1024L0 1024L0 0Z"/><defs><linearGradient id="gradient_0" gradientUnits="userSpaceOnUse" x1="858.30505" y1="537.75751" x2="164.63217" y2="485.25381"><stop offset="0" stop-color="#C9D9B2"/><stop offset="1" stop-color="#FFD2B0"/></linearGradient></defs><path fill="url(#gradient_0)" d="M164.548 489.47C163.366 487.102 164.855 476.085 165.114 472.74C167.846 437.437 177.187 402.534 190.782 369.905C225.108 288.557 289.902 223.87 371.307 189.68C406.327 175.319 443.041 167.618 480.732 164.968C483.613 164.766 487.705 163.932 490.313 165.021C498.193 164.965 528.003 164.192 534.016 165.469C540.084 161.558 588.303 170.956 597.292 172.913C683.841 191.889 759.229 244.639 806.71 319.447C812.903 329.124 831.808 361.764 834.196 372.891C845.695 400.751 852.762 431.66 857.001 461.447C857.977 468.305 860.306 479.567 855.032 484.838C856.024 486.024 857.228 487.387 858.155 488.598C858.641 494.885 859.574 537.07 856.032 539.918C856.826 541.428 857.519 542.676 858.398 544.138C858.626 554.245 856.649 568.248 854.937 578.3C847.485 622.064 829.869 671.889 804.329 708.57C800.131 716.383 788.99 730.817 783.309 737.782C741.672 788.021 686.043 824.752 623.488 843.309C604.473 849.018 584.721 853.276 565.117 856.379C560.073 857.177 538.747 859.807 534.955 858.339C521.958 858.554 502.737 857.874 490.03 859.308C489.236 859.395 488.921 859.404 488.123 859.336C464.302 857.316 441.792 854.704 418.502 848.915C362.721 834.893 311.449 806.849 269.552 767.445C261.081 759.526 253.121 751.755 245.649 742.902C204.326 694.472 177.362 635.456 167.8 572.515C166.562 564.716 163.462 542.741 164.097 535.123C162.87 531.476 163.153 492.493 164.548 489.47Z"/><path fill="#FEFAE0" d="M164.548 489.47C171.185 482.37 177.797 475.005 184.873 468.539C220.551 435.932 266.627 415.491 314.955 413.544C382.644 410.816 443.766 448.792 486.897 498.305C490.952 502.959 496.166 507.629 499.773 512.609C470.561 541.246 449.995 566.816 412.302 586.306C323.4 632.275 233.681 606.568 166.117 537.237C165.434 536.542 164.76 535.837 164.097 535.123C162.87 531.476 163.153 492.493 164.548 489.47Z"/><path fill="#E7C8A0" d="M312.987 450.201C368.326 446.669 412.506 475.254 450.42 512.23C447.431 515.437 439.816 521.552 436.097 524.854C404.735 552.705 374.356 568.578 332.209 572.294C314.349 575.167 280.681 568.987 264.301 562.619C241.812 553.876 207.387 532.038 194.864 511.294C196.641 508.867 198.529 506.523 200.521 504.269C219.346 482.686 251.254 463.789 278.625 455.9C289.298 452.824 301.892 450.964 312.987 450.201Z"/><path fill="#FEFAE0" d="M511.738 524.573C527.292 537.702 545.452 556.308 558.794 571.811C566.771 581.079 578.401 596.827 584.265 607.422C603.4 641.994 613.958 683.43 609.299 722.991C604.668 763.954 587.648 800.956 560.604 831.731C552.914 840.482 543.96 851.045 534.955 858.339C521.958 858.554 502.737 857.874 490.03 859.308C479.93 849.053 470.591 840.508 461.056 829.245C429.043 791.436 411.521 744.433 414.297 694.796C417.462 638.213 444.8 590.751 484.148 551.415C493.777 541.655 501.123 533.814 511.738 524.573Z"/><path fill="#FAEDCD" d="M511.485 576.307C518.249 579.401 535.759 602.099 540.695 608.26C582.934 660.986 584.798 732.524 547.798 788.705C537.268 804.693 526.559 816.102 512.692 829.166L511.857 829.393C453.709 778.862 432.53 705.422 467.406 634.323C479.149 610.383 492.71 594.859 511.485 576.307Z"/><path fill="#FEFAE0" d="M524.305 512.566C525.916 510.706 527.852 508.78 529.64 507.071C544.742 492.64 558.485 476.336 574.284 462.703C603.648 437.443 639.727 421.272 678.122 416.161C725.963 409.54 764.585 419.155 805.692 444.133C812.999 448.573 820.973 454.998 827.882 460.229C835.25 466.299 842.271 472.263 848.893 479.155C850.759 481.097 852.893 483.219 855.032 484.838C856.024 486.024 857.228 487.387 858.155 488.598C858.641 494.885 859.574 537.07 856.032 539.918C853.987 539.961 851.305 543.125 849.769 544.767C836.762 558.669 820.926 569.896 805.411 580.859C774.344 599.119 743.914 609.694 707.366 609.725C657.668 609.445 609.69 591.493 572.014 559.081C554.132 543.945 540.706 528.896 524.305 512.566Z"/><defs><linearGradient id="gradient_1" gradientUnits="userSpaceOnUse" x1="824.00049" y1="511.83804" x2="578.50024" y2="512.17358"><stop offset="0" stop-color="#B9D1A9"/><stop offset="1" stop-color="#EDDEBA"/></linearGradient></defs><path fill="url(#gradient_1)" d="M700.522 450.707C716.847 449.107 743.73 454.508 758.727 460.427C782.833 469.942 810.206 490.937 825.551 511.779C822.435 517.156 814.919 525.516 810.409 529.793C778.934 559.638 747.128 574.01 703.625 573.691C692.436 573.492 681.291 572.233 670.34 569.932C639.701 563.108 611.658 547.65 589.529 525.388C585.219 521.1 580.319 516.412 577.044 511.333C612.403 471.882 647.762 454.132 700.522 450.707Z"/><path fill="#FEFAE0" d="M490.313 165.021C498.193 164.965 528.003 164.192 534.016 165.469C539.031 169.274 555.156 186.215 559.775 191.454C594.532 230.579 612.418 281.854 609.535 334.108C606.021 389.593 576.438 435.335 538.672 473.796C530.192 482.431 521.106 491.812 512.04 499.776C455.3 447.265 411.451 395.223 414.528 313.195C415.397 294.703 418.863 276.425 424.825 258.898C438.903 217.978 459.076 194.176 490.313 165.021Z"/><path fill="#FAEDCD" d="M511.891 195.392C516.086 197.682 532.098 214.876 535.786 219.46C540.838 225.74 549.597 237.305 553.588 244.28C568.999 271.53 575.774 302.817 573.016 334.001C569.366 371.081 550.802 408.06 525.519 435.151C521.34 439.628 517.189 444.286 512.463 448.17C509.148 447.559 491.346 427.035 488.204 423.105C430.198 350.539 440.846 254.174 511.891 195.392Z"/><path fill="#CCD5AE" d="M805.411 580.859C820.926 569.896 836.762 558.669 849.769 544.767C851.305 543.125 853.987 539.961 856.032 539.918C856.826 541.428 857.519 542.676 858.398 544.138C858.626 554.245 856.649 568.248 854.937 578.3C847.485 622.064 829.869 671.889 804.329 708.57C804.708 705.647 809.583 698.801 811.33 695.911C815.565 689.005 819.476 681.906 823.051 674.636C834.572 651.135 842.858 627.644 849.274 602.252C851.016 595.357 859.811 551.026 857.142 546.34L856.293 547.469C855.237 547.091 852.839 545.08 851.802 544.283C849.811 545.43 842.298 553.838 840.111 555.693C835.088 559.953 809.819 579.929 805.635 581.56L805.411 580.859Z"/><path fill="#CCD5AE" d="M834.196 372.891C845.695 400.751 852.762 431.66 857.001 461.447C857.977 468.305 860.306 479.567 855.032 484.838C852.893 483.219 850.759 481.097 848.893 479.155C842.271 472.263 835.25 466.299 827.882 460.229C827.925 459.876 827.875 460.13 828.222 459.533C832.91 462.235 851.575 480.462 852.609 480.564C854.308 479.716 853.632 480.347 854.489 478.392L855.15 478.193L856.618 479.161C861.781 473.914 846.03 410.819 843.324 401.556C841.398 394.968 839.266 388.442 836.933 381.988C836.009 379.404 833.882 375.298 834.196 372.891Z"/><path fill="#FEFAE0" d="M577.776 187.303C585.231 188.035 593.279 189.979 600.524 191.542C712.008 215.594 803.604 304.443 831.336 415.049C833.923 425.366 835.746 436.744 837.887 447.368C832.102 443.561 826.155 438.763 820.379 434.804C814.421 430.719 808.613 427.177 802.423 423.447C788.044 414.974 772.534 409.115 756.514 404.597C714.914 393.051 670.683 395.398 630.539 411.279C618.747 415.913 608.195 421.485 597.182 427.663C600.504 420.214 605.004 412.958 608.3 405.466C615.579 388.922 620.882 370.09 624.092 352.292C630.709 315.6 624.656 272.878 609.519 238.916C601.976 221.993 588.334 202.271 577.776 187.303Z"/><defs><linearGradient id="gradient_2" gradientUnits="userSpaceOnUse" x1="782.07617" y1="332.52304" x2="638.67609" y2="303.55322"><stop offset="0" stop-color="#BFD3AC"/><stop offset="1" stop-color="#E0DBB9"/></linearGradient></defs><path fill="url(#gradient_2)" d="M648.063 245.608C694.083 265.254 732.855 298.725 759.009 341.384C765.607 352.094 770.936 363.371 776.372 374.682L768.368 371.839C732.506 360.201 693.759 359.96 657.121 367.913C665.6 331.088 663.119 280.583 648.063 245.608Z"/><path fill="#FEFAE0" d="M187.074 580.139C190.848 581.623 202.582 589.923 207.144 592.624C222.633 601.795 237.1 609.429 254.148 615.202C301.026 631.077 349.708 629.821 395.681 611.537C406.337 607.299 415.858 602.527 426.159 597.515C423.946 602.771 420.842 608.093 418.49 613.411C390.218 677.329 390.248 740.068 423.545 802.593C430.158 814.51 437.617 826.259 446.199 836.847C433.515 833.482 420.573 831.596 407.799 828.001C378.135 819.653 345.757 805.132 320.309 787.987C261.702 749.08 218.298 691.159 197.411 623.985C192.871 609.473 189.975 595.028 187.074 580.139Z"/><path fill="#E7C8A0" d="M246.371 649.166C249.238 649.59 254.023 651.112 256.966 652.038C295.44 664.154 329.411 663.254 368.52 655.972C360.211 691.476 360.271 736.787 372.837 771.323C373.474 773.558 374.953 777.282 375.783 779.583C369.892 777.35 358.187 770.627 352.67 767.307C313.303 743.622 277.07 708.978 255.62 668.085C252.769 662.65 247.79 654.919 246.371 649.166Z"/><path fill="#FEFAE0" d="M836.505 578.575C836.525 580.553 834.258 592.27 833.8 594.664C826.702 631.323 812.712 666.302 792.573 697.746C752.779 759.934 691.833 805.63 620.983 826.399C606.807 830.696 591.744 833.187 577.152 836.375C586.714 823.763 592.093 815.667 599.932 801.964C611.303 782.587 618.34 762.186 622.919 740.242C633.081 691.538 622.298 640.478 597.52 597.754C604.126 600.173 614.716 605.905 621.675 609.011C638.15 616.213 655.476 621.284 673.234 624.1C715.762 631.116 759.417 623.957 797.477 603.726C811.306 596.435 823.799 587.594 836.505 578.575Z"/><path fill="#CCD5AE" d="M777.437 647.954C777.909 648.364 777.679 648.072 777.89 648.972C775.161 655.725 769.606 665.464 765.995 671.938C738.571 721.093 696.991 754.087 647.735 779.58C648.536 776.865 649.488 774.395 650.474 771.75C661.033 740.736 664.091 710.854 660.924 678.01C660.309 671.635 658.043 662.422 656.572 656.084C697.124 665.227 738.728 664.025 777.437 647.954Z"/><path fill="#FEFAE0" d="M441.242 188.66C442.377 188.428 442.324 188.47 443.475 188.69C443.864 191.143 437.528 197.998 435.605 200.777C425.687 215.106 417.621 231.31 411.153 247.481C393.256 293.45 392.991 344.414 410.41 390.567C413.141 397.674 416.204 404.648 419.59 411.467C422.425 417.057 425.267 421.833 427.772 427.628C415.131 419.845 401.695 413.435 387.692 408.508C343.217 393.061 294.769 393.464 250.557 409.649C242.335 412.675 235.105 416.215 227.225 420.046C213.218 426.769 199.92 435.489 187.262 444.454C195.718 393.773 216.33 345.897 247.333 304.923C289.341 249.237 349.424 209.913 417.268 193.7C424.78 191.918 433.647 189.727 441.242 188.66Z"/><path fill="#E7C8A0" d="M373.557 246.424L374.166 246.645C374.221 248.323 369.978 260.72 369.247 263.549C360.102 298.907 359.468 331.13 367.88 366.657C359.038 364.511 352.639 363.976 343.776 363.057C311.418 359.703 286.345 363.318 255.358 371.791L245.636 375.031C247.833 369.918 252.179 362.16 254.929 357.231C276.711 317.733 308.296 284.509 346.643 260.758C354.983 255.612 364.516 250.183 373.557 246.424Z"/></svg>